<svg id="visual" viewBox="0 0 150 150" width="150" height="150" xmlns="http://www.w3.org/2000/svg" xmlns:xlink="http://www.w3.org/1999/xlink" version="1.1"><g transform="translate(80.6220756361946 73.12674617208309)"><path d="M21.7 -41.2C27.2 -34.5 29.8 -26.6 34.1 -19.6C38.3 -12.5 44.2 -6.3 48.7 2.6C53.3 11.5 56.5 23 51.6 28.9C46.7 34.8 33.6 35.2 23.6 37.1C13.7 39 6.8 42.5 -2.8 47.4C-12.5 52.3 -25 58.6 -33.7 56C-42.3 53.3 -47.1 41.7 -52.9 30.8C-58.6 20 -65.3 10 -65.3 0C-65.3 -10 -58.6 -20 -50.3 -26.4C-42 -32.7 -32 -35.4 -23.3 -40.2C-14.7 -45.1 -7.3 -52 0.4 -52.8C8.2 -53.5 16.3 -48 21.7 -41.2" fill="#4b9bfa" opacity="0.075"></path></g></svg>